<mxfile host="65bd71144e">
    <diagram id="L1LLhLuj-FpsOwdfi9z-" name="Page-1">
        <mxGraphModel dx="916" dy="805" grid="1" gridSize="10" guides="1" tooltips="1" connect="1" arrows="1" fold="1" page="1" pageScale="1" pageWidth="827" pageHeight="1169" math="0" shadow="0">
            <root>
                <mxCell id="0"/>
                <mxCell id="1" parent="0"/>
                <mxCell id="11" style="edgeStyle=none;html=1;entryX=0.5;entryY=0;entryDx=0;entryDy=0;" edge="1" parent="1" source="2" target="4">
                    <mxGeometry relative="1" as="geometry"/>
                </mxCell>
                <mxCell id="2" value="start Method ShortElemArray()" style="ellipse;whiteSpace=wrap;html=1;" vertex="1" parent="1">
                    <mxGeometry x="336.88" y="40" width="153.12" height="50" as="geometry"/>
                </mxCell>
                <mxCell id="3" value="end" style="ellipse;whiteSpace=wrap;html=1;" vertex="1" parent="1">
                    <mxGeometry x="353.44" y="890" width="120" height="50" as="geometry"/>
                </mxCell>
                <mxCell id="12" style="edgeStyle=none;html=1;entryX=0.5;entryY=0;entryDx=0;entryDy=0;" edge="1" parent="1" source="4" target="5">
                    <mxGeometry relative="1" as="geometry"/>
                </mxCell>
                <mxCell id="4" value="array of strings;&lt;br&gt;newLength = 0;" style="rounded=0;whiteSpace=wrap;html=1;" vertex="1" parent="1">
                    <mxGeometry x="353.44" y="130" width="120" height="60" as="geometry"/>
                </mxCell>
                <mxCell id="13" style="edgeStyle=none;html=1;entryX=0.5;entryY=0;entryDx=0;entryDy=0;" edge="1" parent="1" source="5" target="9">
                    <mxGeometry relative="1" as="geometry"/>
                </mxCell>
                <mxCell id="30" style="edgeStyle=orthogonalEdgeStyle;html=1;" edge="1" parent="1" source="5" target="16">
                    <mxGeometry relative="1" as="geometry">
                        <mxPoint x="560" y="480" as="targetPoint"/>
                        <Array as="points">
                            <mxPoint x="580" y="240"/>
                            <mxPoint x="580" y="480"/>
                        </Array>
                    </mxGeometry>
                </mxCell>
                <mxCell id="5" value="i =o, i &amp;lt; array length, i++" style="shape=hexagon;perimeter=hexagonPerimeter2;whiteSpace=wrap;html=1;fixedSize=1;" vertex="1" parent="1">
                    <mxGeometry x="310" y="220" width="208" height="40" as="geometry"/>
                </mxCell>
                <mxCell id="15" style="edgeStyle=orthogonalEdgeStyle;html=1;entryX=0;entryY=0.5;entryDx=0;entryDy=0;" edge="1" parent="1" source="8" target="5">
                    <mxGeometry relative="1" as="geometry">
                        <mxPoint x="260" y="240" as="targetPoint"/>
                        <Array as="points">
                            <mxPoint x="240" y="395"/>
                            <mxPoint x="240" y="240"/>
                        </Array>
                    </mxGeometry>
                </mxCell>
                <mxCell id="8" value="newLength++" style="rounded=0;whiteSpace=wrap;html=1;" vertex="1" parent="1">
                    <mxGeometry x="367.44" y="380" width="92" height="30" as="geometry"/>
                </mxCell>
                <mxCell id="14" value="Yes" style="edgeStyle=none;html=1;entryX=0.5;entryY=0;entryDx=0;entryDy=0;" edge="1" parent="1" source="9" target="8">
                    <mxGeometry relative="1" as="geometry"/>
                </mxCell>
                <mxCell id="29" value="No" style="edgeStyle=orthogonalEdgeStyle;html=1;" edge="1" parent="1" source="9">
                    <mxGeometry relative="1" as="geometry">
                        <mxPoint x="240" y="315" as="targetPoint"/>
                    </mxGeometry>
                </mxCell>
                <mxCell id="9" value="array length &amp;lt;= 3?" style="rhombus;whiteSpace=wrap;html=1;" vertex="1" parent="1">
                    <mxGeometry x="342" y="290" width="142.89" height="50" as="geometry"/>
                </mxCell>
                <mxCell id="31" style="edgeStyle=orthogonalEdgeStyle;html=1;entryX=0.5;entryY=0;entryDx=0;entryDy=0;" edge="1" parent="1" source="16" target="17">
                    <mxGeometry relative="1" as="geometry"/>
                </mxCell>
                <mxCell id="16" value="create newArray with newLength;&lt;br&gt;count = 0;" style="rounded=0;whiteSpace=wrap;html=1;" vertex="1" parent="1">
                    <mxGeometry x="306.88" y="450" width="213.12" height="60" as="geometry"/>
                </mxCell>
                <mxCell id="25" style="edgeStyle=orthogonalEdgeStyle;html=1;entryX=0.5;entryY=0;entryDx=0;entryDy=0;" edge="1" parent="1" source="17" target="18">
                    <mxGeometry relative="1" as="geometry"/>
                </mxCell>
                <mxCell id="32" style="edgeStyle=orthogonalEdgeStyle;html=1;" edge="1" parent="1" source="17" target="22">
                    <mxGeometry relative="1" as="geometry">
                        <mxPoint x="580" y="810" as="targetPoint"/>
                        <Array as="points">
                            <mxPoint x="580" y="565"/>
                            <mxPoint x="580" y="830"/>
                        </Array>
                    </mxGeometry>
                </mxCell>
                <mxCell id="17" value="j =o, j &amp;lt; array length, j++" style="shape=hexagon;perimeter=hexagonPerimeter2;whiteSpace=wrap;html=1;fixedSize=1;size=20.559999999999945;" vertex="1" parent="1">
                    <mxGeometry x="309.44" y="545" width="208" height="40" as="geometry"/>
                </mxCell>
                <mxCell id="26" value="Yes" style="edgeStyle=orthogonalEdgeStyle;html=1;entryX=0.5;entryY=0;entryDx=0;entryDy=0;" edge="1" parent="1" source="18" target="19">
                    <mxGeometry relative="1" as="geometry"/>
                </mxCell>
                <mxCell id="28" value="No" style="edgeStyle=orthogonalEdgeStyle;html=1;" edge="1" parent="1" source="18">
                    <mxGeometry relative="1" as="geometry">
                        <mxPoint x="240" y="645" as="targetPoint"/>
                    </mxGeometry>
                </mxCell>
                <mxCell id="18" value="array length &amp;lt;= 3?" style="rhombus;whiteSpace=wrap;html=1;" vertex="1" parent="1">
                    <mxGeometry x="342" y="620" width="142.89" height="50" as="geometry"/>
                </mxCell>
                <mxCell id="27" style="edgeStyle=orthogonalEdgeStyle;html=1;entryX=0;entryY=0.5;entryDx=0;entryDy=0;" edge="1" parent="1" source="19" target="17">
                    <mxGeometry relative="1" as="geometry">
                        <mxPoint x="250" y="480" as="targetPoint"/>
                        <Array as="points">
                            <mxPoint x="240" y="735"/>
                            <mxPoint x="240" y="565"/>
                        </Array>
                    </mxGeometry>
                </mxCell>
                <mxCell id="19" value="newArray[count] = array[j];&lt;br&gt;count++" style="rounded=0;whiteSpace=wrap;html=1;" vertex="1" parent="1">
                    <mxGeometry x="317.44" y="710" width="192" height="50" as="geometry"/>
                </mxCell>
                <mxCell id="24" style="edgeStyle=orthogonalEdgeStyle;html=1;entryX=0.5;entryY=0;entryDx=0;entryDy=0;" edge="1" parent="1" source="22" target="3">
                    <mxGeometry relative="1" as="geometry"/>
                </mxCell>
                <mxCell id="22" value="return newArray;" style="rounded=0;whiteSpace=wrap;html=1;" vertex="1" parent="1">
                    <mxGeometry x="353.44" y="800" width="120" height="60" as="geometry"/>
                </mxCell>
            </root>
        </mxGraphModel>
    </diagram>
</mxfile>